<svg id="XMLID_519_" xmlns="http://www.w3.org/2000/svg" width="88.21" height="86.064" viewBox="0 0 88.21 86.064">
  <path id="XMLID_515_" d="M90.43,17.679v30.55a6.822,6.822,0,0,1-6.879,6.879H80.314V71.7a.767.767,0,0,1-1.416.4L61.3,55.108H24.879A6.822,6.822,0,0,1,18,48.229V17.679A6.822,6.822,0,0,1,24.879,10.8H83.551A6.822,6.822,0,0,1,90.43,17.679Z" transform="translate(-2.219 -10.8)" fill="#ffc107"/>
  <path id="XMLID_509_" d="M68.108,20.042H34.321A1.813,1.813,0,0,1,32.5,18.221h0A1.813,1.813,0,0,1,34.321,16.4H68.108a1.813,1.813,0,0,1,1.821,1.821h0A1.813,1.813,0,0,1,68.108,20.042Z" transform="translate(12.617 -5.07)" fill="#fff"/>
  <path id="XMLID_508_" d="M68.108,24.642H34.321A1.813,1.813,0,0,1,32.5,22.821h0A1.813,1.813,0,0,1,34.321,21H68.108a1.813,1.813,0,0,1,1.821,1.821h0A1.813,1.813,0,0,1,68.108,24.642Z" transform="translate(12.617 -0.364)" fill="#fff"/>
  <path id="XMLID_507_" d="M62.071,29.142H40.221A1.813,1.813,0,0,1,38.4,27.321h0A1.813,1.813,0,0,1,40.221,25.5h21.85a1.813,1.813,0,0,1,1.821,1.821h0A1.813,1.813,0,0,1,62.071,29.142Z" transform="translate(18.654 4.241)" fill="#fff"/>
  <g id="XMLID_517_" transform="translate(6.997 69.648)">
    <path id="XMLID_520_" d="M26.691,61.055,22.037,58.83h-.2l-4.653,2.63c-.2.2-.4,0-.4-.4l.809-5.26v-.2l-3.844-3.642c-.2-.2,0-.4.2-.607l5.26-.809c.2,0,.2,0,.2-.2l2.225-4.856a.379.379,0,0,1,.607,0l2.428,4.653.2.2,5.26.607a.388.388,0,0,1,.2.607L26.488,55.39s-.2.2,0,.2l1.012,5.26C27.3,61.055,26.893,61.257,26.691,61.055Z" transform="translate(-13.659 -45.123)" fill="#ffc107"/>
    <path id="XMLID_510_" d="M36.4,61.157l-4.653-2.225h-.2l-4.653,2.63c-.2.2-.4,0-.4-.4l.809-5.26v-.2l-4.249-3.844c-.2-.2,0-.4.2-.607l5.26-.809c.2,0,.2,0,.2-.2l2.225-4.856a.379.379,0,0,1,.607,0l2.428,4.653.2.2,5.26.607a.388.388,0,0,1,.2.607L35.788,55.29s-.2.2,0,.2l1.012,5.26C37,61.157,36.6,61.36,36.4,61.157Z" transform="translate(-4.143 -45.225)" fill="#ffc107"/>
    <path id="XMLID_511_" d="M45.691,61.055,41.037,58.83h-.2l-4.653,2.63c-.2.2-.4,0-.4-.4l.809-5.26v-.2l-3.844-3.642c-.2-.2,0-.4.2-.607l5.26-.809c.2,0,.2,0,.2-.2l2.225-4.856a.379.379,0,0,1,.607,0l2.428,4.653.2.2,5.26.607a.388.388,0,0,1,.2.607L45.488,55.39s-.2.2,0,.2l1.012,5.26C46.3,61.055,45.893,61.257,45.691,61.055Z" transform="translate(5.782 -45.123)" fill="#ffc107"/>
    <path id="XMLID_512_" d="M55.4,61.157l-4.653-2.225h-.2l-4.653,2.63c-.2.2-.4,0-.4-.4l.809-5.26v-.2l-4.249-3.844c-.2-.2,0-.4.2-.607l5.26-.809c.2,0,.2,0,.2-.2l2.225-4.856a.379.379,0,0,1,.607,0l2.428,4.653.2.2,5.26.607a.388.388,0,0,1,.2.607L54.788,55.29s-.2.2,0,.2l1.012,5.26C56,61.157,55.6,61.36,55.4,61.157Z" transform="translate(15.297 -45.225)" fill="#ffc107"/>
  </g>
  <path id="XMLID_506_" d="M54.317,15.1H17.9V43.829a6.822,6.822,0,0,0,6.879,6.879H61.2V22.181A6.75,6.75,0,0,0,54.317,15.1Z" transform="translate(-2.322 -6.4)" fill="#231f20" opacity="0.3"/>
  <path id="XMLID_503_" d="M10.2,22.084v30.55a6.822,6.822,0,0,0,6.879,6.879h3.237V76.1a.767.767,0,0,0,1.416.4l17.6-16.995H60.172a6.822,6.822,0,0,0,6.879-6.879V22.084A6.822,6.822,0,0,0,60.172,15.2H17.079A6.584,6.584,0,0,0,10.2,22.084Z" transform="translate(-10.2 -6.303)" fill="#df495b"/>
  <path id="XMLID_502_" d="M50.608,23.542H16.821A1.813,1.813,0,0,1,15,21.721h0A1.813,1.813,0,0,1,16.821,19.9H50.608a1.813,1.813,0,0,1,1.821,1.821h0A1.813,1.813,0,0,1,50.608,23.542Z" transform="translate(-5.289 -1.489)" fill="#fff"/>
  <path id="XMLID_504_" d="M50.608,28.142H16.821A1.813,1.813,0,0,1,15,26.321h0A1.813,1.813,0,0,1,16.821,24.5H50.608a1.813,1.813,0,0,1,1.821,1.821h0A1.813,1.813,0,0,1,50.608,28.142Z" transform="translate(-5.289 3.217)" fill="#fff"/>
  <path id="XMLID_505_" d="M44.571,32.642H22.721A1.813,1.813,0,0,1,20.9,30.821h0A1.813,1.813,0,0,1,22.721,29h21.85a1.813,1.813,0,0,1,1.821,1.821h0A1.813,1.813,0,0,1,44.571,32.642Z" transform="translate(0.748 7.822)" fill="#fff"/>
</svg>
