<svg id="XMLID_307_" xmlns="http://www.w3.org/2000/svg" width="91.179" height="90.111" viewBox="0 0 91.179 90.111">
  <g id="XMLID_317_" transform="translate(0 0)">
    <path id="XMLID_347_" d="M105.8,96.758H15.1V13.128c0-1.264,1.342-2.528,3.22-2.528h84.528c1.61,0,3.22,1.053,3.22,2.528v83.63Z" transform="translate(-14.889 -10.6)" fill="#ececec"/>
    <path id="XMLID_346_" d="M105.968,21.443V13.228c0-1.264-1.342-2.528-3.22-2.528H18.22c-1.61,0-3.22,1.053-3.22,2.528v8.216Z" transform="translate(-15 -10.489)" fill="#df495b"/>
    <rect id="XMLID_345_" width="70.745" height="21.697" transform="translate(10.322 12.85)" fill="#d8d8d8"/>
    <path id="XMLID_316_" d="M87.543,29H22.911C21.165,29,20,30.053,20,31.107h0c0,1.264,1.456,2.107,2.911,2.107H87.834c1.747,0,2.911-1.053,2.911-2.107h0C90.745,30.053,89.29,29,87.543,29Z" transform="translate(-9.467 9.761)" fill="#d8d8d8"/>
    <path id="XMLID_318_" d="M87.834,33.4H22.911C21.165,33.4,20,34.453,20,35.507h0c0,1.264,1.456,2.107,2.911,2.107H87.834c1.747,0,2.911-1.053,2.911-2.107h0C90.745,34.243,89.581,33.4,87.834,33.4Z" transform="translate(-9.467 14.629)" fill="#d8d8d8"/>
    <path id="XMLID_320_" d="M87.934,37.7H23.011c-1.747,0-2.911,1.053-2.911,2.107h0c0,1.264,1.456,2.107,2.911,2.107H87.934c1.747,0,2.911-1.053,2.911-2.107h0C90.845,38.753,89.681,37.7,87.934,37.7Z" transform="translate(-9.357 19.388)" fill="#d8d8d8"/>
    <path id="XMLID_334_" d="M69.283,42.1H22.307A2.111,2.111,0,0,0,20.2,44.207h0a2.111,2.111,0,0,0,2.107,2.107H69.283a2.111,2.111,0,0,0,2.107-2.107h0A2.111,2.111,0,0,0,69.283,42.1Z" transform="translate(10.31 24.256)" fill="#d8d8d8"/>
    <ellipse id="XMLID_331_" cx="1.475" cy="1.475" rx="1.475" ry="1.475" transform="translate(5.688 4.002)" fill="#fff"/>
    <ellipse id="XMLID_327_" cx="1.475" cy="1.475" rx="1.475" ry="1.475" transform="translate(10.322 4.002)" fill="#fff"/>
    <ellipse id="XMLID_328_" cx="1.475" cy="1.475" rx="1.475" ry="1.475" transform="translate(16.122 4.002)" fill="#fff"/>
    <path id="XMLID_321_" d="M49.46,10.7H46.3a2.562,2.562,0,0,1,2.528,2.528V96.647h3.16V13.017A2.693,2.693,0,0,0,49.46,10.7Z" transform="translate(39.191 -10.489)" fill="#414042" opacity="0.2"/>
  </g>
  <g id="Group_1870" data-name="Group 1870" transform="translate(18.839 28.936)">
    <path id="XMLID_311_" d="M53.166,81.4V69.187l7.794,4c.632.421,1.475-.211,1.475-1.053l-2.949-16.01a1.267,1.267,0,0,1,.211-.843L71.282,43.7c.632-.632.211-1.475-.632-1.685L54.43,39.905a1.094,1.094,0,0,1-.843-.421L46.214,24.949c-.421-.632-1.475-.632-1.685,0L37.367,39.695l-.632.632-16.22,2.528a.944.944,0,0,0-.421,1.685l11.8,11.375c.211.211.421.632.211.843l-2.528,16.22a.974.974,0,0,0,1.475,1.053l7.584-4v1.685h0V81.826H53.166Z" transform="translate(-19.726 -24.183)" fill="#231f20" opacity="0.3"/>
    <g id="XMLID_308_" transform="translate(1.319)">
      <path id="XMLID_751_" d="M42.05,64.7l-4.424-2.739a2.282,2.282,0,0,0-2.317,0L30.885,64.7A1.094,1.094,0,0,1,29.2,63.644V43H43.735V63.644A1.2,1.2,0,0,1,42.05,64.7Z" transform="translate(-10.56 -3.684)" fill="#df495b"/>
      <path id="XMLID_654_" d="M43.846,43H29.1v7.794L36.052,47a.641.641,0,0,1,.843,0l6.741,3.37V43Z" transform="translate(-10.671 -3.684)" fill="#231f20" opacity="0.3"/>
      <path id="XMLID_715_" d="M61.321,73.553,46.785,66.18a.641.641,0,0,0-.843,0L31.618,73.975c-.632.421-1.475-.211-1.475-1.053L32.672,56.7c0-.421,0-.632-.211-.843l-11.8-11.375a1.006,1.006,0,0,1,.421-1.685l16.22-2.528a.559.559,0,0,0,.632-.632L45.1,24.892c.421-.632,1.475-.843,1.685,0l7.373,14.535a1.094,1.094,0,0,0,.843.421l16.22,2.107c.843,0,1.053,1.053.632,1.685L60.267,55.226c-.211.211-.421.632-.211.843l2.949,16.01A1.389,1.389,0,0,1,61.321,73.553Z" transform="translate(-20.352 -24.336)" fill="#ffc107"/>
      <g id="XMLID_319_" transform="translate(9.759 17.619)">
        <path id="XMLID_330_" d="M52.049,34.6c.632-.632.211-1.475-.632-1.685L50.153,32.7a1.267,1.267,0,0,1-.211.843L38.356,45.129c-.211.211-.421.632-.211.843L41.1,61.981a.922.922,0,0,1-1.264,1.053l2.107,1.053c.632.421,1.475-.211,1.475-1.053l-2.949-16.01a1.267,1.267,0,0,1,.211-.843Z" transform="translate(-10.517 -32.7)" fill="#ffa000"/>
        <path id="XMLID_333_" d="M39.552,43.683a.641.641,0,0,0-.843,0L25.017,51.056v.421a.974.974,0,0,0,1.475,1.053l14.325-7.794a.641.641,0,0,1,.843,0Z" transform="translate(-24.984 -20.722)" fill="#ffa000"/>
      </g>
    </g>
  </g>
</svg>
