<svg id="Group_1874" data-name="Group 1874" xmlns="http://www.w3.org/2000/svg" width="72.647" height="90.111" viewBox="0 0 72.647 90.111">
  <g id="XMLID_300_" transform="translate(0 0)">
    <path id="XMLID_1134_" d="M65.629,32.314c0,12.194-22.114,37.2-22.114,37.2s-22.114-24.8-22.114-37a22.115,22.115,0,1,1,44.229-.207Z" transform="translate(-7.088 -10.2)" fill="#ffc107"/>
    <g id="XMLID_1138_" transform="translate(36.427 3.1)">
      <path id="XMLID_1140_" d="M50.288,30.508h-.62a.548.548,0,0,1-.62-.62A16.926,16.926,0,0,0,32.72,13.56a.66.66,0,0,1-.62-.62v-.62a.548.548,0,0,1,.62-.62A19.145,19.145,0,0,1,51.114,30.094,1.567,1.567,0,0,1,50.288,30.508Z" transform="translate(-32.1 -11.7)" fill="#fff"/>
    </g>
    <ellipse id="XMLID_1147_" cx="13.847" cy="13.847" rx="13.847" ry="13.847" transform="translate(22.373 9.3)" fill="#fff"/>
    <path id="XMLID_320_" d="M42.574,28.5l-6.82,9.507A7.161,7.161,0,0,0,34.1,41.313v5.374c3.927-4.754,9.507-11.987,13.227-19.014A3.226,3.226,0,0,0,42.574,28.5Z" transform="translate(6.46 7.67)" fill="#231f20" opacity="0.3"/>
    <g id="XMLID_901_" transform="translate(36.633 17.154)">
      <path id="XMLID_929_" d="M48.707,46.668h-.413c-1.24,0-2.893-1.033-2.893-2.48l1.24-11.574L45.813,22.28a2.513,2.513,0,0,1,2.48-2.48h.413a2.513,2.513,0,0,1,2.48,2.48V44.188A2.388,2.388,0,0,1,48.707,46.668Z" transform="translate(-18.119 -17.113)" fill="#d8d8d8"/>
      <path id="XMLID_927_" d="M36.853,46.815l6.82-9.507a3.848,3.848,0,0,1,4.754-1.033h0a3.678,3.678,0,0,1,1.24,4.96L45.12,49.088a.928.928,0,0,0,.827,1.447h2.273l9.92-10.541s1.033-6.614,1.24-7.44V21.187A2.736,2.736,0,0,1,62.068,18.5h0a2.736,2.736,0,0,1,2.687,2.687V31.314c.413.827.207,11.987.207,11.987L53.181,67.689H35.2V50.122A7.161,7.161,0,0,1,36.853,46.815Z" transform="translate(-29 -18.5)" fill="#ececec"/>
      <path id="XMLID_910_" d="M35.2,40.7v3.307H53.181L54.834,40.7Z" transform="translate(-29 5.182)" fill="#231f20" opacity="0.2"/>
      <rect id="XMLID_909_" width="28.108" height="24.595" transform="translate(0 48.362)" fill="#df495b"/>
      <rect id="XMLID_902_" width="7.647" height="24.595" transform="translate(0 48.362)" fill="#df495b"/>
    </g>
    <path id="XMLID_319_" d="M36.727,41.265a7.161,7.161,0,0,0-1.653-3.307l-6.82-9.507A3.792,3.792,0,0,0,23.5,27.417,129.685,129.685,0,0,0,36.727,46.225Z" transform="translate(-4.847 7.718)" fill="#231f20" opacity="0.3"/>
    <g id="XMLID_301_" transform="translate(0 16.948)">
      <path id="XMLID_317_" d="M18.28,46.561h.413c1.24,0,2.893-1.033,2.893-2.48l-1.24-11.367.827-10.334a2.513,2.513,0,0,0-2.48-2.48H18.28a2.513,2.513,0,0,0-2.48,2.48V44.288A2.346,2.346,0,0,0,18.28,46.561Z" transform="translate(-13.062 -16.8)" fill="#d8d8d8"/>
      <path id="XMLID_316_" d="M42.428,46.921l-6.82-9.507a3.848,3.848,0,0,0-4.754-1.033h0a3.678,3.678,0,0,0-1.24,4.96l4.754,7.647a.928.928,0,0,1-.827,1.447H31.267l-9.92-10.541s-1.033-6.614-1.24-7.44V21.087A2.736,2.736,0,0,0,17.42,18.4h0a2.736,2.736,0,0,0-2.687,2.687V31.214c-.413.827-.207,11.987-.207,11.987L26.307,67.589H44.288V50.022A12.335,12.335,0,0,0,42.428,46.921Z" transform="translate(-14.475 -18.4)" fill="#ececec"/>
      <path id="XMLID_315_" d="M38.934,40.7v3.307H20.953L19.3,40.7Z" transform="translate(-9.328 5.389)" fill="#231f20" opacity="0.2"/>
      <rect id="XMLID_314_" width="28.108" height="24.595" transform="translate(7.492 48.569)" fill="#df495b"/>
      <rect id="XMLID_309_" width="7.647" height="24.595" transform="translate(28.16 48.569)" fill="#df495b"/>
    </g>
  </g>
  <circle id="Ellipse_252" data-name="Ellipse 252" cx="8.5" cy="8.5" r="8.5" transform="translate(26.798 14.978)" fill="#c4c3c3"/>
  <circle id="Ellipse_251" data-name="Ellipse 251" cx="8.5" cy="8.5" r="8.5" transform="translate(27.798 14.978)" fill="#df495b"/>
</svg>
