<svg xmlns="http://www.w3.org/2000/svg" xmlns:xlink="http://www.w3.org/1999/xlink" width="19.647" height="19.647" viewBox="0 0 19.647 19.647"><defs><style>.a,.c{fill:#fff;}.a{stroke:#95989a;}.b{clip-path:url(#a);}</style><clipPath id="a"><path class="a" d="M0,0H19.647V19.647H0Z" transform="translate(1068.536 23.356)"/></clipPath></defs><g class="b" transform="translate(-1068.536 -23.356)"><g transform="translate(1068.536 23.356)"><path class="c" d="M19.479.169a.576.576,0,0,0-.814,0L16.988,1.845a1.731,1.731,0,0,0-.325-.117L11.453.441A1.736,1.736,0,0,0,9.813.9L.505,10.188a1.729,1.729,0,0,0,0,2.442l6.512,6.512a1.729,1.729,0,0,0,2.442,0l9.292-9.308a1.735,1.735,0,0,0,.454-1.64l-1.287-5.21a1.734,1.734,0,0,0-.117-.325L19.479.983A.576.576,0,0,0,19.479.169ZM18.089,8.474a.579.579,0,0,1-.151.547L8.646,18.328a.576.576,0,0,1-.814,0L1.319,11.816a.576.576,0,0,1,0-.814l9.308-9.292a.579.579,0,0,1,.408-.168.571.571,0,0,1,.138.017l4.894,1.208L14.681,4.152a1.727,1.727,0,1,0,.814.814L16.881,3.58ZM14.344,6.117a.575.575,0,1,1,0-.814h0A.576.576,0,0,1,14.344,6.117Z" transform="translate(0 0)"/><g transform="translate(6.512 6.426)"><path class="c" d="M10.9,8.355a1.727,1.727,0,1,0,0,2.442A1.729,1.729,0,0,0,10.9,8.355Zm-.814,1.628a.576.576,0,1,1,0-.814A.576.576,0,0,1,10.088,9.983Z" transform="translate(-7.955 -7.85)"/></g><g transform="translate(7.326 12.124)"><path class="c" d="M11.9,15.316a1.727,1.727,0,1,0,0,2.442A1.726,1.726,0,0,0,11.9,15.316Zm-.814,1.628a.576.576,0,1,1,0-.814A.575.575,0,0,1,11.083,16.944Z" transform="translate(-8.95 -14.81)"/></g><g transform="translate(4.407 10.019)"><path class="c" d="M13.857,12.751a.576.576,0,0,0-.636-.509L5.9,13.056A.576.576,0,0,0,5.958,14.2a.587.587,0,0,0,.064,0l7.327-.814A.576.576,0,0,0,13.857,12.751Z" transform="translate(-5.383 -12.239)"/></g></g></g></svg>