<svg xmlns="http://www.w3.org/2000/svg" xmlns:xlink="http://www.w3.org/1999/xlink" width="31" height="31" viewBox="0 0 31 31"><defs><style>.a,.c{fill:#fff;}.a{stroke:#df495b;stroke-width:0.8px;}.b{clip-path:url(#a);}.c{stroke:#fff;stroke-width:0.2px;}</style><clipPath id="a"><rect class="a" width="31" height="31" rx="14" transform="translate(-0.274 -0.248)"/></clipPath></defs><g transform="translate(0.274 0.248)"><g class="b"><path class="c" d="M29.327,14.663a14.663,14.663,0,1,0-24.567,10.8l-.014.012.476.4c.031.026.065.047.1.073.253.21.515.408.781.6.086.062.173.125.261.186q.427.294.876.559l.2.113c.327.186.661.362,1,.523l.076.034a14.531,14.531,0,0,0,3.546,1.122l.1.018c.386.067.776.12,1.171.156l.145.011c.394.033.791.053,1.194.053s.793-.021,1.185-.052L16,29.263q.588-.054,1.161-.153l.1-.018a14.531,14.531,0,0,0,3.5-1.1l.122-.055q.493-.232.966-.5l.234-.135c.287-.169.569-.346.843-.533.1-.067.2-.138.293-.208.234-.168.464-.342.687-.524.05-.04.1-.075.151-.116l.488-.407-.014-.012A14.625,14.625,0,0,0,29.327,14.663Zm-28.26,0A13.6,13.6,0,1,1,23.681,24.828a4,4,0,0,0-.476-.286L18.69,22.285a1.182,1.182,0,0,1-.657-1.063V19.645c.1-.129.215-.275.329-.436a10.866,10.866,0,0,0,1.395-2.732,1.935,1.935,0,0,0,1.112-1.754v-1.89a1.94,1.94,0,0,0-.473-1.263V9.082a4.3,4.3,0,0,0-1-3.127c-.983-1.122-2.573-1.69-4.728-1.69s-3.745.568-4.728,1.689a4.3,4.3,0,0,0-1,3.127V11.57a1.943,1.943,0,0,0-.473,1.263v1.89a1.94,1.94,0,0,0,.715,1.5,10.019,10.019,0,0,0,1.649,3.407v1.543a1.189,1.189,0,0,1-.62,1.044l-4.216,2.3a3.853,3.853,0,0,0-.4.254A13.564,13.564,0,0,1,1.066,14.663Zm21.573,11q-.28.2-.569.392c-.089.058-.176.115-.267.171-.252.156-.508.3-.769.443l-.174.089a13.587,13.587,0,0,1-1.86.787l-.068.023q-.5.166-1.015.294h0c-.346.085-.7.156-1.047.214l-.029.005c-.331.054-.665.093-1,.122l-.178.013c-.331.025-.664.041-1,.041s-.675-.017-1.01-.042l-.174-.013c-.338-.03-.675-.07-1.008-.124l-.045-.008a13.546,13.546,0,0,1-2.074-.518l-.063-.021q-.5-.171-.993-.38l-.007,0c-.308-.133-.611-.28-.909-.435l-.117-.06c-.272-.146-.539-.3-.8-.467L7.23,26.04c-.242-.158-.481-.323-.713-.5l-.071-.055.051-.029,4.216-2.3a2.255,2.255,0,0,0,1.176-1.98V19.257l-.123-.148a8.9,8.9,0,0,1-1.6-3.314l-.049-.211-.182-.118a.884.884,0,0,1-.41-.742v-1.89a.871.871,0,0,1,.3-.652L10,12.022V9.052l0-.07a3.212,3.212,0,0,1,.744-2.325,5.024,5.024,0,0,1,3.926-1.325A5.037,5.037,0,0,1,18.58,6.647a3.265,3.265,0,0,1,.753,2.336l0,3.04.176.159a.872.872,0,0,1,.3.652v1.89a.891.891,0,0,1-.63.84l-.265.082-.085.264a9.865,9.865,0,0,1-1.331,2.683c-.14.2-.276.372-.392.506l-.132.151v1.972a2.242,2.242,0,0,0,1.247,2.017L22.728,25.5l.085.044C22.756,25.583,22.7,25.623,22.64,25.665Z" transform="translate(0.367 0.367)"/></g></g></svg>